<svg id="Layer_1" data-name="Layer 1" xmlns="http://www.w3.org/2000/svg" xmlns:xlink="http://www.w3.org/1999/xlink" viewBox="0 0 470.75 90.44"><defs><style>.cls-1{fill:#13678d;}.cls-2{fill:#fff;}.cls-3{clip-path:url(#clip-path);}</style><clipPath id="clip-path" transform="translate(12.1 10.04)"><path class="cls-1" d="M4.45,63.42A3,3,0,0,1,0,60.75V5.09A3,3,0,0,1,4.45,2.42L42,22.37a3,3,0,0,1-2.84,5.34L6,10.13V55.7L105.66,2.43a3,3,0,0,1,4.45,2.66V60.75a3,3,0,0,1-4.47,2.66L68.85,43.56a3,3,0,0,1,2.88-5.32l32.33,17.43V10.14Zm104.07-5.32-4.47,2.66V55.67Z"/></clipPath></defs><title>Jeeves-Logo-Final-white_1</title><path class="cls-2" d="M131.13,70.42q4,0,5.67-1.73t1.68-6.08V1.27h11.62V65.16q0,8-3.81,11.62T135.39,80.4h-3.27Z" transform="translate(12.1 10.04)"/><path class="cls-2" d="M171.63,1.27h40.65V12.52H183.52V26h22.32V37.3H183.52V53.54h29.67V64.79H171.63Z" transform="translate(12.1 10.04)"/><path class="cls-2" d="M231.25,1.27H271.9V12.52H243.14V26h22.32V37.3H243.14V53.54h29.67V64.79H231.25Z" transform="translate(12.1 10.04)"/><path class="cls-2" d="M341.38,1.27l-22.6,63.52h-11L285.21,1.27h11.71L313.25,48,329.67,1.27Z" transform="translate(12.1 10.04)"/><path class="cls-2" d="M356.08,1.27h40.66V12.52H368V26h22.32V37.3H368V53.54h29.68V64.79H356.08Z" transform="translate(12.1 10.04)"/><path class="cls-2" d="M422.58,64.61A45.47,45.47,0,0,1,413,61.44l1.36-12.34q12,5.81,21.05,5.81A13.2,13.2,0,0,0,443,53a6.22,6.22,0,0,0,2.72-5.49,6.72,6.72,0,0,0-1.5-4.49,11.6,11.6,0,0,0-4.31-3q-2.81-1.22-9-3.4a54.16,54.16,0,0,1-9.62-4.22,17.4,17.4,0,0,1-6-5.72A15.64,15.64,0,0,1,413,18.15,16.29,16.29,0,0,1,419,5q6-5,17.15-5a47.43,47.43,0,0,1,10.48,1.18,64.94,64.94,0,0,1,9.57,2.9L455,16a71.73,71.73,0,0,0-10.3-3.68,36.59,36.59,0,0,0-9.3-1.23q-5.17,0-7.9,1.73a5.56,5.56,0,0,0-2.72,5A6,6,0,0,0,426.26,22a11.11,11.11,0,0,0,3.95,2.72q2.49,1.09,7.4,2.63,11,3.45,16,7.94t5,12.3a18.39,18.39,0,0,1-5.17,13q-5.17,5.54-19.42,5.54A50,50,0,0,1,422.58,64.61Z" transform="translate(12.1 10.04)"/><path class="cls-1" d="M4.45,63.42A3,3,0,0,1,0,60.75V5.09A3,3,0,0,1,4.45,2.42L42,22.37a3,3,0,0,1-2.84,5.34L6,10.13V55.7L105.66,2.43a3,3,0,0,1,4.45,2.66V60.75a3,3,0,0,1-4.47,2.66L68.85,43.56a3,3,0,0,1,2.88-5.32l32.33,17.43V10.14Zm104.07-5.32-4.47,2.66V55.67Z" transform="translate(12.1 10.04)"/><g class="cls-3"><rect class="cls-1" width="134.31" height="85.92"/></g></svg>