<svg width="498" height="56" viewBox="0 0 498 56" fill="none" xmlns="http://www.w3.org/2000/svg">
<g filter="url(#filter0_d_222_100787)">
<path d="M34.2141 4.6H35.2141V3.6H34.2141V4.6ZM34.2141 41V42H35.2141V41H34.2141ZM25.7901 41H24.7901V42H25.7901V41ZM25.7901 26.076H26.7901V25.076H25.7901V26.076ZM9.25407 26.076V25.076H8.25407V26.076H9.25407ZM9.25407 41V42H10.2541V41H9.25407ZM0.830069 41H-0.169931V42H0.830069V41ZM0.830069 4.6V3.6H-0.169931V4.6H0.830069ZM9.25407 4.6H10.2541V3.6H9.25407V4.6ZM9.25407 18.952H8.25407V19.952H9.25407V18.952ZM25.7901 18.952V19.952H26.7901V18.952H25.7901ZM25.7901 4.6V3.6H24.7901V4.6H25.7901ZM33.2141 4.6V41H35.2141V4.6H33.2141ZM34.2141 40H25.7901V42H34.2141V40ZM26.7901 41V26.076H24.7901V41H26.7901ZM25.7901 25.076H9.25407V27.076H25.7901V25.076ZM8.25407 26.076V41H10.2541V26.076H8.25407ZM9.25407 40H0.830069V42H9.25407V40ZM1.83007 41V4.6H-0.169931V41H1.83007ZM0.830069 5.6H9.25407V3.6H0.830069V5.6ZM8.25407 4.6V18.952H10.2541V4.6H8.25407ZM9.25407 19.952H25.7901V17.952H9.25407V19.952ZM26.7901 18.952V4.6H24.7901V18.952H26.7901ZM25.7901 5.6H34.2141V3.6H25.7901V5.6ZM69.8662 13.024H70.8662V12.024H69.8662V13.024ZM69.8662 41V42H70.8662V41H69.8662ZM62.1182 41H61.1182V42H62.1182V41ZM62.1182 37.776H63.1182V35.0017L61.3481 37.138L62.1182 37.776ZM46.2062 39.648L45.7193 40.5215L45.7253 40.5248L46.2062 39.648ZM41.2142 34.604L40.34 35.0896L40.34 35.0896L41.2142 34.604ZM41.2142 19.42L40.34 18.9344L40.34 18.9344L41.2142 19.42ZM46.2062 14.376L45.7253 13.4992L45.7193 13.5025L46.2062 14.376ZM61.7542 15.988L61.008 16.6538L62.7542 18.6107V15.988H61.7542ZM61.7542 13.024V12.024H60.7542V13.024H61.7542ZM59.8822 32.68L60.5982 33.3782L60.6067 33.3692L59.8822 32.68ZM59.8822 21.396L59.1576 22.0853L59.1662 22.0941L59.8822 21.396ZM49.6382 21.396L50.3542 22.0942L50.3627 22.0852L49.6382 21.396ZM49.6382 32.68L48.9136 33.3693L48.9222 33.3781L49.6382 32.68ZM68.8662 13.024V41H70.8662V13.024H68.8662ZM69.8662 40H62.1182V42H69.8662V40ZM63.1182 41V37.776H61.1182V41H63.1182ZM61.3481 37.138C59.5674 39.2871 56.9666 40.416 53.3822 40.416V42.416C57.4244 42.416 60.6476 41.1182 62.8882 38.414L61.3481 37.138ZM53.3822 40.416C50.9026 40.416 48.678 39.863 46.687 38.7712L45.7253 40.5248C48.033 41.7903 50.5924 42.416 53.3822 42.416V40.416ZM46.693 38.7745C44.7464 37.6895 43.2142 36.145 42.0883 34.1184L40.34 35.0896C41.6408 37.431 43.4365 39.2491 45.7193 40.5215L46.693 38.7745ZM42.0883 34.1184C40.9693 32.1041 40.3942 29.7454 40.3942 27.012H38.3942C38.3942 30.0332 39.0324 32.7359 40.34 35.0896L42.0883 34.1184ZM40.3942 27.012C40.3942 24.2786 40.9693 21.9199 42.0883 19.9056L40.34 18.9344C39.0324 21.2881 38.3942 23.9908 38.3942 27.012H40.3942ZM42.0883 19.9056C43.2142 17.879 44.7464 16.3345 46.693 15.2495L45.7193 13.5025C43.4365 14.7749 41.6408 16.593 40.34 18.9344L42.0883 19.9056ZM46.687 15.2528C48.678 14.161 50.9026 13.608 53.3822 13.608V11.608C50.5924 11.608 48.033 12.2337 45.7253 13.4992L46.687 15.2528ZM53.3822 13.608C56.7248 13.608 59.2219 14.6522 61.008 16.6538L62.5003 15.3222C60.265 12.8172 57.1809 11.608 53.3822 11.608V13.608ZM62.7542 15.988V13.024H60.7542V15.988H62.7542ZM61.7542 14.024H69.8662V12.024H61.7542V14.024ZM54.7862 35.76C57.0842 35.76 59.0465 34.9696 60.5982 33.3781L59.1662 31.9819C58.0138 33.1638 56.5788 33.76 54.7862 33.76V35.76ZM60.6067 33.3692C62.1701 31.7257 62.9102 29.571 62.9102 27.012H60.9102C60.9102 29.1677 60.2982 30.7917 59.1576 31.9908L60.6067 33.3692ZM62.9102 27.012C62.9102 24.454 62.1703 22.3104 60.5982 20.6979L59.1662 22.0941C60.298 23.255 60.9102 24.8554 60.9102 27.012H62.9102ZM60.6067 20.7068C59.0571 19.0777 57.0923 18.264 54.7862 18.264V20.264C56.5707 20.264 58.0032 20.8716 59.1576 22.0852L60.6067 20.7068ZM54.7862 18.264C52.4508 18.264 50.4667 19.074 48.9136 20.7068L50.3627 22.0852C51.5136 20.8753 52.9616 20.264 54.7862 20.264V18.264ZM48.9222 20.6979C47.35 22.3104 46.6102 24.454 46.6102 27.012H48.6102C48.6102 24.8554 49.2223 23.255 50.3542 22.0941L48.9222 20.6979ZM46.6102 27.012C46.6102 29.571 47.3502 31.7257 48.9136 33.3692L50.3627 31.9908C49.2221 30.7917 48.6102 29.1677 48.6102 27.012H46.6102ZM48.9222 33.3781C50.4773 34.9731 52.4587 35.76 54.7862 35.76V33.76C52.9536 33.76 51.503 33.1602 50.3542 31.9819L48.9222 33.3781ZM120.745 15.728L120.031 16.4291L120.037 16.4351L120.043 16.441L120.745 15.728ZM123.865 41V42H124.865V41H123.865ZM115.753 41H114.753V42H115.753V41ZM114.349 21.292L113.572 21.9226L113.583 21.9359L113.594 21.9488L114.349 21.292ZM105.925 21.5L106.663 22.1748L106.672 22.1644L105.925 21.5ZM104.261 41V42H105.261V41H104.261ZM96.1485 41H95.1485V42H96.1485V41ZM86.3725 21.5L87.1106 22.1748L87.1199 22.1644L86.3725 21.5ZM84.7085 41V42H85.7085V41H84.7085ZM76.5965 41H75.5965V42H76.5965V41ZM76.5965 13.024V12.024H75.5965V13.024H76.5965ZM84.3445 13.024H85.3445V12.024H84.3445V13.024ZM84.3445 16.248H83.3445V18.8928L85.0943 16.9096L84.3445 16.248ZM88.1405 13.544L87.7619 12.6184L87.7544 12.6216L88.1405 13.544ZM98.4885 13.804L98.0413 14.6984L98.0491 14.7023L98.0571 14.7061L98.4885 13.804ZM102.337 17.184L101.499 17.7297L102.26 18.8996L103.123 17.8018L102.337 17.184ZM106.653 13.804L106.241 12.8924L106.235 12.8955L106.653 13.804ZM112.425 13.608C115.715 13.608 118.211 14.5778 120.031 16.4291L121.458 15.0269C119.187 12.7182 116.136 11.608 112.425 11.608V13.608ZM120.043 16.441C121.865 18.2319 122.865 21.0142 122.865 24.984H124.865C124.865 20.7031 123.784 17.3148 121.446 15.015L120.043 16.441ZM122.865 24.984V41H124.865V24.984H122.865ZM123.865 40H115.753V42H123.865V40ZM116.753 41V26.232H114.753V41H116.753ZM116.753 26.232C116.753 23.9002 116.265 21.9697 115.103 20.6352L113.594 21.9488C114.304 22.7636 114.753 24.1265 114.753 26.232H116.753ZM115.125 20.6614C113.997 19.2735 112.385 18.628 110.449 18.628V20.628C111.909 20.628 112.897 21.0919 113.572 21.9226L115.125 20.6614ZM110.449 18.628C108.301 18.628 106.504 19.3427 105.177 20.8356L106.672 22.1644C107.564 21.1613 108.783 20.628 110.449 20.628V18.628ZM105.186 20.8252C103.844 22.2939 103.261 24.4003 103.261 26.96H105.261C105.261 24.6664 105.787 23.1328 106.663 22.1748L105.186 20.8252ZM103.261 26.96V41H105.261V26.96H103.261ZM104.261 40H96.1485V42H104.261V40ZM97.1485 41V26.232H95.1485V41H97.1485ZM97.1485 26.232C97.1485 23.9231 96.6892 22.0063 95.6022 20.6528C94.4815 19.2574 92.8319 18.628 90.8445 18.628V20.628C92.3932 20.628 93.3955 21.0992 94.0428 21.9052C94.7238 22.753 95.1485 24.1382 95.1485 26.232H97.1485ZM90.8445 18.628C88.7254 18.628 86.9484 19.3469 85.6251 20.8356L87.1199 22.1644C88.0153 21.1571 89.2196 20.628 90.8445 20.628V18.628ZM85.6345 20.8252C84.2917 22.2939 83.7085 24.4003 83.7085 26.96H85.7085C85.7085 24.6664 86.2347 23.1328 87.1105 22.1748L85.6345 20.8252ZM83.7085 26.96V41H85.7085V26.96H83.7085ZM84.7085 40H76.5965V42H84.7085V40ZM77.5965 41V13.024H75.5965V41H77.5965ZM76.5965 14.024H84.3445V12.024H76.5965V14.024ZM83.3445 13.024V16.248H85.3445V13.024H83.3445ZM85.0943 16.9096C86.0315 15.8475 87.1713 15.0338 88.5266 14.4664L87.7544 12.6216C86.1284 13.3022 84.7375 14.2912 83.5947 15.5864L85.0943 16.9096ZM88.5191 14.4695C89.9135 13.8991 91.4474 13.608 93.1325 13.608V11.608C91.2122 11.608 89.4182 11.9409 87.7619 12.6185L88.5191 14.4695ZM93.1325 13.608C94.9703 13.608 96.6 13.9778 98.0413 14.6984L98.9357 12.9096C97.1877 12.0356 95.2467 11.608 93.1325 11.608V13.608ZM98.0571 14.7061C99.4849 15.389 100.627 16.3919 101.499 17.7297L103.175 16.6383C102.104 14.9948 100.681 13.7443 98.92 12.9019L98.0571 14.7061ZM103.123 17.8018C104.166 16.4744 105.477 15.4456 107.07 14.7125L106.235 12.8955C104.362 13.7571 102.795 14.9816 101.55 16.5662L103.123 17.8018ZM107.064 14.7156C108.693 13.9807 110.476 13.608 112.425 13.608V11.608C110.213 11.608 108.148 12.0327 106.241 12.8924L107.064 14.7156ZM130.356 13.024V12.024H129.356V13.024H130.356ZM138.468 13.024H139.468V12.024H138.468V13.024ZM138.468 41V42H139.468V41H138.468ZM130.356 41H129.356V42H130.356V41ZM130.772 7.824L130.092 8.55776L130.092 8.55776L130.772 7.824ZM130.772 1.376L131.451 2.10976L131.451 2.10976L130.772 1.376ZM138.052 1.324L137.387 2.07141L137.387 2.07141L138.052 1.324ZM138.052 7.824L138.731 8.55776L138.738 8.55111L138.745 8.54432L138.052 7.824ZM130.356 14.024H138.468V12.024H130.356V14.024ZM137.468 13.024V41H139.468V13.024H137.468ZM138.468 40H130.356V42H138.468V40ZM131.356 41V13.024H129.356V41H131.356ZM134.412 8.124C133.128 8.124 132.171 7.75727 131.451 7.09024L130.092 8.55776C131.244 9.62406 132.714 10.124 134.412 10.124V8.124ZM131.451 7.09024C130.721 6.41402 130.368 5.60585 130.368 4.6H128.368C128.368 6.15947 128.95 7.50065 130.092 8.55776L131.451 7.09024ZM130.368 4.6C130.368 3.59414 130.721 2.78598 131.451 2.10976L130.092 0.642238C128.95 1.69935 128.368 3.04052 128.368 4.6H130.368ZM131.451 2.10976C132.171 1.44272 133.128 1.076 134.412 1.076V-0.924003C132.714 -0.924003 131.244 -0.42406 130.092 0.642239L131.451 2.10976ZM134.412 1.076C135.706 1.076 136.668 1.43205 137.387 2.07141L138.716 0.576591C137.563 -0.448055 136.098 -0.924003 134.412 -0.924003V1.076ZM137.387 2.07141C138.111 2.7144 138.456 3.48277 138.456 4.444H140.456C140.456 2.90923 139.865 1.5976 138.716 0.57659L137.387 2.07141ZM138.456 4.444C138.456 5.53658 138.089 6.39924 137.358 7.10368L138.745 8.54432C139.886 7.44609 140.456 6.05542 140.456 4.444H138.456ZM137.372 7.09024C136.652 7.75727 135.696 8.124 134.412 8.124V10.124C136.109 10.124 137.579 9.62406 138.731 8.55776L137.372 7.09024ZM173.608 13.024H174.608V12.024H173.608V13.024ZM173.608 41V42H174.608V41H173.608ZM165.86 41H164.86V42H165.86V41ZM165.86 37.776H166.86V35.0017L165.09 37.138L165.86 37.776ZM149.948 39.648L149.461 40.5215L149.467 40.5248L149.948 39.648ZM144.956 34.604L144.082 35.0896L144.082 35.0896L144.956 34.604ZM144.956 19.42L144.082 18.9344L144.082 18.9344L144.956 19.42ZM149.948 14.376L149.467 13.4992L149.461 13.5025L149.948 14.376ZM165.496 15.988L164.75 16.6538L166.496 18.6107V15.988H165.496ZM165.496 13.024V12.024H164.496V13.024H165.496ZM163.624 32.68L164.34 33.3782L164.349 33.3692L163.624 32.68ZM163.624 21.396L162.9 22.0853L162.908 22.0941L163.624 21.396ZM153.38 21.396L154.096 22.0942L154.105 22.0852L153.38 21.396ZM153.38 32.68L152.656 33.3693L152.664 33.3781L153.38 32.68ZM172.608 13.024V41H174.608V13.024H172.608ZM173.608 40H165.86V42H173.608V40ZM166.86 41V37.776H164.86V41H166.86ZM165.09 37.138C163.309 39.2871 160.709 40.416 157.124 40.416V42.416C161.166 42.416 164.39 41.1182 166.63 38.414L165.09 37.138ZM157.124 40.416C154.645 40.416 152.42 39.863 150.429 38.7712L149.467 40.5248C151.775 41.7903 154.334 42.416 157.124 42.416V40.416ZM150.435 38.7745C148.488 37.6895 146.956 36.145 145.83 34.1184L144.082 35.0896C145.383 37.431 147.179 39.2491 149.461 40.5215L150.435 38.7745ZM145.83 34.1184C144.711 32.1041 144.136 29.7454 144.136 27.012H142.136C142.136 30.0332 142.774 32.7359 144.082 35.0896L145.83 34.1184ZM144.136 27.012C144.136 24.2786 144.711 21.9199 145.83 19.9056L144.082 18.9344C142.774 21.2881 142.136 23.9908 142.136 27.012H144.136ZM145.83 19.9056C146.956 17.879 148.488 16.3345 150.435 15.2495L149.461 13.5025C147.179 14.7749 145.383 16.593 144.082 18.9344L145.83 19.9056ZM150.429 15.2528C152.42 14.161 154.645 13.608 157.124 13.608V11.608C154.334 11.608 151.775 12.2337 149.467 13.4992L150.429 15.2528ZM157.124 13.608C160.467 13.608 162.964 14.6522 164.75 16.6538L166.242 15.3222C164.007 12.8172 160.923 11.608 157.124 11.608V13.608ZM166.496 15.988V13.024H164.496V15.988H166.496ZM165.496 14.024H173.608V12.024H165.496V14.024ZM158.528 35.76C160.826 35.76 162.789 34.9696 164.34 33.3781L162.908 31.9819C161.756 33.1638 160.321 33.76 158.528 33.76V35.76ZM164.349 33.3692C165.912 31.7257 166.652 29.571 166.652 27.012H164.652C164.652 29.1677 164.04 30.7917 162.9 31.9908L164.349 33.3692ZM166.652 27.012C166.652 24.454 165.912 22.3104 164.34 20.6979L162.908 22.0941C164.04 23.255 164.652 24.8554 164.652 27.012H166.652ZM164.349 20.7068C162.799 19.0777 160.834 18.264 158.528 18.264V20.264C160.313 20.264 161.745 20.8716 162.9 22.0852L164.349 20.7068ZM158.528 18.264C156.193 18.264 154.209 19.074 152.656 20.7068L154.105 22.0852C155.256 20.8753 156.704 20.264 158.528 20.264V18.264ZM152.664 20.6979C151.092 22.3104 150.352 24.454 150.352 27.012H152.352C152.352 24.8554 152.964 23.255 154.096 22.0941L152.664 20.6979ZM150.352 27.012C150.352 29.571 151.092 31.7257 152.656 33.3692L154.105 31.9908C152.964 30.7917 152.352 29.1677 152.352 27.012H150.352ZM152.664 33.3781C154.219 34.9731 156.201 35.76 158.528 35.76V33.76C156.696 33.76 155.245 33.1602 154.096 31.9819L152.664 33.3781ZM197.187 39.648L197.781 40.4522L198.387 40.0045L198.124 39.2987L197.187 39.648ZM194.223 41L194.458 41.9719L194.468 41.9694L194.478 41.9667L194.223 41ZM182.887 38.868L182.201 39.5958L182.887 38.868ZM180.183 6.836V5.836H179.183V6.836H180.183ZM188.295 6.836H189.295V5.836H188.295V6.836ZM188.295 13.648H187.295V14.648H188.295V13.648ZM195.211 13.648H196.211V12.648H195.211V13.648ZM195.211 19.888V20.888H196.211V19.888H195.211ZM188.295 19.888V18.888H187.295V19.888H188.295ZM189.179 34.032L188.433 34.6988L188.442 34.7088L188.452 34.7186L189.179 34.032ZM195.055 33.928L195.992 33.5787L195.536 32.3555L194.473 33.1143L195.055 33.928ZM196.592 38.8438C195.917 39.343 195.05 39.7464 193.967 40.0333L194.478 41.9667C195.752 41.6296 196.862 41.1316 197.781 40.4522L196.592 38.8438ZM193.987 40.0281C192.925 40.2857 191.808 40.416 190.635 40.416V42.416C191.957 42.416 193.233 42.269 194.458 41.9719L193.987 40.0281ZM190.635 40.416C187.434 40.416 185.131 39.6094 183.572 38.1402L182.201 39.5958C184.247 41.5239 187.11 42.416 190.635 42.416V40.416ZM183.572 38.1402C182.03 36.6869 181.183 34.4926 181.183 31.38H179.183C179.183 34.8541 180.138 37.6517 182.201 39.5958L183.572 38.1402ZM181.183 31.38V6.836H179.183V31.38H181.183ZM180.183 7.836H188.295V5.836H180.183V7.836ZM187.295 6.836V13.648H189.295V6.836H187.295ZM188.295 14.648H195.211V12.648H188.295V14.648ZM194.211 13.648V19.888H196.211V13.648H194.211ZM195.211 18.888H188.295V20.888H195.211V18.888ZM187.295 19.888V31.276H189.295V19.888H187.295ZM187.295 31.276C187.295 32.6173 187.632 33.8029 188.433 34.6988L189.924 33.3652C189.547 32.9438 189.295 32.292 189.295 31.276H187.295ZM188.452 34.7186C189.281 35.5969 190.427 35.968 191.727 35.968V33.968C190.808 33.968 190.255 33.7151 189.906 33.3454L188.452 34.7186ZM191.727 35.968C193.173 35.968 194.487 35.562 195.636 34.7417L194.473 33.1143C193.68 33.6806 192.776 33.968 191.727 33.968V35.968ZM194.118 34.2773L196.25 39.9973L198.124 39.2987L195.992 33.5787L194.118 34.2773ZM244.939 8.084L244.19 8.7472L244.195 8.75191L244.939 8.084ZM248.579 41V42H249.579V41H248.579ZM240.155 41H239.155V42H240.155V41ZM238.075 13.388L237.334 14.0598L237.342 14.0688L237.351 14.0777L238.075 13.388ZM226.219 13.544L225.504 12.8447L225.504 12.8449L226.219 13.544ZM223.931 41V42H224.931V41H223.931ZM215.507 41H214.507V42H215.507V41ZM215.507 4.6V3.6H214.507V4.6H215.507ZM223.671 4.6H224.671V3.6H223.671V4.6ZM223.671 9.02H222.671V12.02L224.471 9.62L223.671 9.02ZM228.351 5.276L228.757 6.18981L228.764 6.18669L228.771 6.18347L228.351 5.276ZM234.799 4.976C238.904 4.976 241.989 6.26248 244.19 8.74719L245.687 7.42081C243.036 4.42819 239.361 2.976 234.799 2.976V4.976ZM244.195 8.75191C246.403 11.2123 247.579 14.805 247.579 19.68H249.579C249.579 14.5016 248.328 10.3637 245.683 7.41609L244.195 8.75191ZM247.579 19.68V41H249.579V19.68H247.579ZM248.579 40H240.155V42H248.579V40ZM241.155 41V19.94H239.155V41H241.155ZM241.155 19.94C241.155 16.8857 240.428 14.4093 238.799 12.6983L237.351 14.0777C238.495 15.2787 239.155 17.1703 239.155 19.94H241.155ZM238.816 12.7162C237.235 10.974 235.053 10.152 232.407 10.152V12.152C234.614 12.152 236.21 12.8207 237.334 14.0598L238.816 12.7162ZM232.407 10.152C229.616 10.152 227.281 11.0285 225.504 12.8447L226.934 14.2433C228.277 12.8702 230.067 12.152 232.407 12.152V10.152ZM225.504 12.8449C223.732 14.6574 222.931 17.2744 222.931 20.512H224.931C224.931 17.5789 225.655 15.5506 226.934 14.2431L225.504 12.8449ZM222.931 20.512V41H224.931V20.512H222.931ZM223.931 40H215.507V42H223.931V40ZM216.507 41V4.6H214.507V41H216.507ZM215.507 5.6H223.671V3.6H215.507V5.6ZM222.671 4.6V9.02H224.671V4.6H222.671ZM224.471 9.62C225.618 8.0903 227.043 6.95141 228.757 6.18981L227.945 4.36219C225.914 5.26458 224.22 6.6217 222.871 8.42L224.471 9.62ZM228.771 6.18347C230.49 5.38758 232.492 4.976 234.799 4.976V2.976C232.252 2.976 229.956 3.43109 227.931 4.36853L228.771 6.18347ZM283.933 13.024H284.933V12.024H283.933V13.024ZM283.933 41V42H284.933V41H283.933ZM276.185 41H275.185V42H276.185V41ZM276.185 37.776H277.185V35.0017L275.415 37.138L276.185 37.776ZM260.273 39.648L259.787 40.5215L259.793 40.5248L260.273 39.648ZM255.281 34.604L254.407 35.0896L254.407 35.0896L255.281 34.604ZM255.281 19.42L254.407 18.9344L254.407 18.9344L255.281 19.42ZM260.273 14.376L259.793 13.4992L259.787 13.5025L260.273 14.376ZM275.821 15.988L275.075 16.6538L276.821 18.6107V15.988H275.821ZM275.821 13.024V12.024H274.821V13.024H275.821ZM273.949 32.68L274.666 33.3782L274.674 33.3692L273.949 32.68ZM273.949 21.396L273.225 22.0853L273.233 22.0941L273.949 21.396ZM263.705 21.396L264.422 22.0942L264.43 22.0852L263.705 21.396ZM263.705 32.68L262.981 33.3693L262.989 33.3781L263.705 32.68ZM282.933 13.024V41H284.933V13.024H282.933ZM283.933 40H276.185V42H283.933V40ZM277.185 41V37.776H275.185V41H277.185ZM275.415 37.138C273.635 39.2871 271.034 40.416 267.449 40.416V42.416C271.492 42.416 274.715 41.1182 276.956 38.414L275.415 37.138ZM267.449 40.416C264.97 40.416 262.745 39.863 260.754 38.7712L259.793 40.5248C262.1 41.7903 264.66 42.416 267.449 42.416V40.416ZM260.76 38.7745C258.814 37.6895 257.282 36.145 256.156 34.1184L254.407 35.0896C255.708 37.431 257.504 39.2491 259.787 40.5215L260.76 38.7745ZM256.156 34.1184C255.037 32.1041 254.461 29.7454 254.461 27.012H252.461C252.461 30.0332 253.1 32.7359 254.407 35.0896L256.156 34.1184ZM254.461 27.012C254.461 24.2786 255.037 21.9199 256.156 19.9056L254.407 18.9344C253.1 21.2881 252.461 23.9908 252.461 27.012H254.461ZM256.156 19.9056C257.282 17.879 258.814 16.3345 260.76 15.2495L259.787 13.5025C257.504 14.7749 255.708 16.593 254.407 18.9344L256.156 19.9056ZM260.754 15.2528C262.745 14.161 264.97 13.608 267.449 13.608V11.608C264.66 11.608 262.1 12.2337 259.793 13.4992L260.754 15.2528ZM267.449 13.608C270.792 13.608 273.289 14.6522 275.075 16.6538L276.568 15.3222C274.332 12.8172 271.248 11.608 267.449 11.608V13.608ZM276.821 15.988V13.024H274.821V15.988H276.821ZM275.821 14.024H283.933V12.024H275.821V14.024ZM268.853 35.76C271.152 35.76 273.114 34.9696 274.665 33.3781L273.233 31.9819C272.081 33.1638 270.646 33.76 268.853 33.76V35.76ZM274.674 33.3692C276.237 31.7257 276.977 29.571 276.977 27.012H274.977C274.977 29.1677 274.366 30.7917 273.225 31.9908L274.674 33.3692ZM276.977 27.012C276.977 24.454 276.238 22.3104 274.665 20.6979L273.233 22.0941C274.365 23.255 274.977 24.8554 274.977 27.012H276.977ZM274.674 20.7068C273.124 19.0777 271.16 18.264 268.853 18.264V20.264C270.638 20.264 272.071 20.8716 273.225 22.0852L274.674 20.7068ZM268.853 18.264C266.518 18.264 264.534 19.074 262.981 20.7068L264.43 22.0852C265.581 20.8753 267.029 20.264 268.853 20.264V18.264ZM262.989 20.6979C261.417 22.3104 260.677 24.454 260.677 27.012H262.677C262.677 24.8554 263.29 23.255 264.421 22.0941L262.989 20.6979ZM260.677 27.012C260.677 29.571 261.418 31.7257 262.981 33.3692L264.43 31.9908C263.289 30.7917 262.677 29.1677 262.677 27.012H260.677ZM262.989 33.3781C264.545 34.9731 266.526 35.76 268.853 35.76V33.76C267.021 33.76 265.57 33.1602 264.421 31.9819L262.989 33.3781ZM293.316 38.92L292.623 39.6411L292.63 39.6482L293.316 38.92ZM290.664 2.416V1.416H289.664V2.416H290.664ZM298.776 2.416H299.776V1.416H298.776V2.416ZM299.66 34.032L298.915 34.6988L298.933 34.7195L298.953 34.7391L299.66 34.032ZM303.508 34.812L303.283 33.8376L303.274 33.8397L303.265 33.8419L303.508 34.812ZM304.548 34.448L305.546 34.3902L305.453 32.779L304.052 33.5798L304.548 34.448ZM304.912 40.74L305.228 41.6887L305.954 41.4466L305.91 40.6822L304.912 40.74ZM300.7 40.416C297.721 40.416 295.533 39.6338 294.001 38.1918L292.63 39.6482C294.634 41.5342 297.369 42.416 300.7 42.416V40.416ZM294.009 38.1989C292.485 36.7349 291.664 34.6318 291.664 31.744H289.664C289.664 35.0269 290.611 37.7078 292.623 39.6411L294.009 38.1989ZM291.664 31.744V2.416H289.664V31.744H291.664ZM290.664 3.416H298.776V1.416H290.664V3.416ZM297.776 2.416V31.276H299.776V2.416H297.776ZM297.776 31.276C297.776 32.6173 298.113 33.8029 298.915 34.6988L300.405 33.3652C300.028 32.9438 299.776 32.292 299.776 31.276H297.776ZM298.953 34.7391C299.81 35.596 300.957 35.968 302.26 35.968V33.968C301.344 33.968 300.758 33.716 300.367 33.3249L298.953 34.7391ZM302.26 35.968C302.76 35.968 303.258 35.9054 303.75 35.7821L303.265 33.8419C302.926 33.9266 302.592 33.968 302.26 33.968V35.968ZM303.733 35.7864C304.225 35.6728 304.679 35.5246 305.044 35.3162L304.052 33.5798C303.931 33.6487 303.692 33.7432 303.283 33.8376L303.733 35.7864ZM303.55 34.5058L303.914 40.7978L305.91 40.6822L305.546 34.3902L303.55 34.5058ZM304.596 39.7913C303.348 40.2073 302.051 40.416 300.7 40.416V42.416C302.261 42.416 303.772 42.1741 305.228 41.6887L304.596 39.7913ZM352.366 13.024H353.366V12.024H352.366V13.024ZM348.986 38.036L349.693 38.7431L348.986 38.036ZM334.01 40.48L333.632 41.4056L333.639 41.4085L334.01 40.48ZM330.162 37.464L330.962 36.864L330.162 35.7973L329.362 36.864L330.162 37.464ZM326.314 40.48L325.936 39.5545L326.314 40.48ZM311.286 38.036L310.574 38.7376L310.574 38.7376L311.286 38.036ZM307.958 13.024V12.024H306.958V13.024H307.958ZM316.07 13.024H317.07V12.024H316.07V13.024ZM317.266 32.992L316.454 33.5756L316.459 33.5818L316.463 33.5878L317.266 32.992ZM324.858 32.94L325.658 33.54L325.658 33.54L324.858 32.94ZM326.106 13.024V12.024H325.106V13.024H326.106ZM334.218 13.024H335.218V12.024H334.218V13.024ZM335.466 32.94L336.266 32.34L336.266 32.34L335.466 32.94ZM343.058 32.992L343.861 33.5878L343.866 33.5818L343.87 33.5756L343.058 32.992ZM344.254 13.024V12.024H343.254V13.024H344.254ZM351.366 13.024V28.468H353.366V13.024H351.366ZM351.366 28.468C351.366 32.4097 350.294 35.3138 348.279 37.3289L349.693 38.7431C352.185 36.2515 353.366 32.777 353.366 28.468H351.366ZM348.279 37.3289C346.266 39.3425 343.345 40.416 339.366 40.416V42.416C343.707 42.416 347.2 41.2362 349.693 38.7431L348.279 37.3289ZM339.366 40.416C337.458 40.416 335.803 40.12 334.382 39.5515L333.639 41.4085C335.338 42.088 337.253 42.416 339.366 42.416V40.416ZM334.389 39.5545C333.04 39.0025 331.9 38.1139 330.962 36.864L329.362 38.064C330.505 39.5875 331.93 40.7095 333.632 41.4055L334.389 39.5545ZM329.362 36.864C328.425 38.1139 327.285 39.0025 325.936 39.5545L326.693 41.4055C328.394 40.7095 329.82 39.5875 330.962 38.064L329.362 36.864ZM325.936 39.5545C324.558 40.1182 322.889 40.416 320.906 40.416V42.416C323.083 42.416 325.02 42.0898 326.693 41.4055L325.936 39.5545ZM320.906 40.416C316.889 40.416 313.974 39.3406 311.999 37.3344L310.574 38.7376C313.036 41.238 316.535 42.416 320.906 42.416V40.416ZM311.999 37.3344C310.015 35.32 308.958 32.4138 308.958 28.468H306.958C306.958 32.7728 308.12 36.2454 310.574 38.7376L311.999 37.3344ZM308.958 28.468V13.024H306.958V28.468H308.958ZM307.958 14.024H316.07V12.024H307.958V14.024ZM315.07 13.024V27.844H317.07V13.024H315.07ZM315.07 27.844C315.07 30.2444 315.476 32.2138 316.454 33.5756L318.078 32.4084C317.462 31.5515 317.07 30.0889 317.07 27.844H315.07ZM316.463 33.5878C317.499 34.984 319.089 35.604 321.01 35.604V33.604C319.534 33.604 318.628 33.1493 318.069 32.3962L316.463 33.5878ZM321.01 35.604C322.971 35.604 324.591 34.9636 325.658 33.54L324.058 32.34C323.462 33.135 322.516 33.604 321.01 33.604V35.604ZM325.658 33.54C326.68 32.1772 327.106 30.2198 327.106 27.844H325.106C325.106 30.0442 324.7 31.4842 324.058 32.34L325.658 33.54ZM327.106 27.844V13.024H325.106V27.844H327.106ZM326.106 14.024H334.218V12.024H326.106V14.024ZM333.218 13.024V27.844H335.218V13.024H333.218ZM333.218 27.844C333.218 30.2198 333.644 32.1772 334.666 33.54L336.266 32.34C335.624 31.4842 335.218 30.0442 335.218 27.844H333.218ZM334.666 33.54C335.734 34.9636 337.354 35.604 339.314 35.604V33.604C337.808 33.604 336.863 33.135 336.266 32.34L334.666 33.54ZM339.314 35.604C341.235 35.604 342.826 34.984 343.861 33.5878L342.255 32.3962C341.696 33.1493 340.791 33.604 339.314 33.604V35.604ZM343.87 33.5756C344.849 32.2138 345.254 30.2444 345.254 27.844H343.254C343.254 30.0889 342.862 31.5515 342.246 32.4084L343.87 33.5756ZM345.254 27.844V13.024H343.254V27.844H345.254ZM344.254 14.024H352.366V12.024H344.254V14.024ZM387.269 13.024H388.269V12.024H387.269V13.024ZM387.269 41V42H388.269V41H387.269ZM379.521 41H378.521V42H379.521V41ZM379.521 37.776H380.521V35.0017L378.751 37.138L379.521 37.776ZM363.609 39.648L363.122 40.5215L363.128 40.5248L363.609 39.648ZM358.617 34.604L357.743 35.0896L357.743 35.0896L358.617 34.604ZM358.617 19.42L357.743 18.9344L357.743 18.9344L358.617 19.42ZM363.609 14.376L363.128 13.4992L363.122 13.5025L363.609 14.376ZM379.157 15.988L378.411 16.6538L380.157 18.6107V15.988H379.157ZM379.157 13.024V12.024H378.157V13.024H379.157ZM377.285 32.68L378.001 33.3782L378.01 33.3692L377.285 32.68ZM377.285 21.396L376.561 22.0853L376.569 22.0941L377.285 21.396ZM367.041 21.396L367.757 22.0942L367.766 22.0852L367.041 21.396ZM367.041 32.68L366.317 33.3693L366.325 33.3781L367.041 32.68ZM386.269 13.024V41H388.269V13.024H386.269ZM387.269 40H379.521V42H387.269V40ZM380.521 41V37.776H378.521V41H380.521ZM378.751 37.138C376.971 39.2871 374.37 40.416 370.785 40.416V42.416C374.828 42.416 378.051 41.1182 380.291 38.414L378.751 37.138ZM370.785 40.416C368.306 40.416 366.081 39.863 364.09 38.7712L363.128 40.5248C365.436 41.7903 367.995 42.416 370.785 42.416V40.416ZM364.096 38.7745C362.15 37.6895 360.617 36.145 359.491 34.1184L357.743 35.0896C359.044 37.431 360.84 39.2491 363.122 40.5215L364.096 38.7745ZM359.491 34.1184C358.372 32.1041 357.797 29.7454 357.797 27.012H355.797C355.797 30.0332 356.435 32.7359 357.743 35.0896L359.491 34.1184ZM357.797 27.012C357.797 24.2786 358.372 21.9199 359.491 19.9056L357.743 18.9344C356.435 21.2881 355.797 23.9908 355.797 27.012H357.797ZM359.491 19.9056C360.617 17.879 362.15 16.3345 364.096 15.2495L363.122 13.5025C360.84 14.7749 359.044 16.593 357.743 18.9344L359.491 19.9056ZM364.09 15.2528C366.081 14.161 368.306 13.608 370.785 13.608V11.608C367.995 11.608 365.436 12.2337 363.128 13.4992L364.09 15.2528ZM370.785 13.608C374.128 13.608 376.625 14.6522 378.411 16.6538L379.903 15.3222C377.668 12.8172 374.584 11.608 370.785 11.608V13.608ZM380.157 15.988V13.024H378.157V15.988H380.157ZM379.157 14.024H387.269V12.024H379.157V14.024ZM372.189 35.76C374.487 35.76 376.45 34.9696 378.001 33.3781L376.569 31.9819C375.417 33.1638 373.982 33.76 372.189 33.76V35.76ZM378.01 33.3692C379.573 31.7257 380.313 29.571 380.313 27.012H378.313C378.313 29.1677 377.701 30.7917 376.561 31.9908L378.01 33.3692ZM380.313 27.012C380.313 24.454 379.573 22.3104 378.001 20.6979L376.569 22.0941C377.701 23.255 378.313 24.8554 378.313 27.012H380.313ZM378.01 20.7068C376.46 19.0777 374.495 18.264 372.189 18.264V20.264C373.974 20.264 375.406 20.8716 376.561 22.0852L378.01 20.7068ZM372.189 18.264C369.854 18.264 367.87 19.074 366.317 20.7068L367.766 22.0852C368.917 20.8753 370.365 20.264 372.189 20.264V18.264ZM366.325 20.6979C364.753 22.3104 364.013 24.454 364.013 27.012H366.013C366.013 24.8554 366.625 23.255 367.757 22.0941L366.325 20.6979ZM364.013 27.012C364.013 29.571 364.753 31.7257 366.317 33.3692L367.766 31.9908C366.625 30.7917 366.013 29.1677 366.013 27.012H364.013ZM366.325 33.3781C367.88 34.9731 369.862 35.76 372.189 35.76V33.76C370.357 33.76 368.906 33.1602 367.757 31.9819L366.325 33.3781ZM419.376 15.728L418.674 16.4409L418.68 16.4466L419.376 15.728ZM422.6 41V42H423.6V41H422.6ZM414.488 41H413.488V42H414.488V41ZM413.032 21.292L412.279 21.9505L412.284 21.9564L412.29 21.9623L413.032 21.292ZM403.932 21.552L404.649 22.2491L404.658 22.2392L403.932 21.552ZM402.112 41V42H403.112V41H402.112ZM394 41H393V42H394V41ZM394 13.024V12.024H393V13.024H394ZM401.748 13.024H402.748V12.024H401.748V13.024ZM401.748 16.3H400.748V18.881L402.487 16.9738L401.748 16.3ZM405.752 13.596L406.116 14.5272L406.125 14.5238L406.133 14.5203L405.752 13.596ZM411.004 13.608C414.256 13.608 416.778 14.5758 418.674 16.4409L420.077 15.0151C417.744 12.7202 414.685 11.608 411.004 11.608V13.608ZM418.68 16.4466C420.572 18.2772 421.6 21.0617 421.6 24.984H423.6C423.6 20.7249 422.478 17.3388 420.071 15.0094L418.68 16.4466ZM421.6 24.984V41H423.6V24.984H421.6ZM422.6 40H414.488V42H422.6V40ZM415.488 41V26.232H413.488V41H415.488ZM415.488 26.232C415.488 23.8929 414.979 21.9566 413.774 20.6217L412.29 21.9623C413.025 22.7767 413.488 24.1338 413.488 26.232H415.488ZM413.784 20.6335C412.578 19.2554 410.869 18.628 408.82 18.628V20.628C410.445 20.628 411.544 21.11 412.279 21.9505L413.784 20.6335ZM408.82 18.628C406.547 18.628 404.638 19.3504 403.205 20.8648L404.658 22.2392C405.652 21.1883 407.002 20.628 408.82 20.628V18.628ZM403.215 20.8549C401.754 22.3574 401.112 24.5248 401.112 27.168H403.112C403.112 24.8192 403.683 23.2426 404.649 22.2491L403.215 20.8549ZM401.112 27.168V41H403.112V27.168H401.112ZM402.112 40H394V42H402.112V40ZM395 41V13.024H393V41H395ZM394 14.024H401.748V12.024H394V14.024ZM400.748 13.024V16.3H402.748V13.024H400.748ZM402.487 16.9738C403.45 15.9168 404.654 15.0995 406.116 14.5272L405.387 12.6648C403.66 13.3405 402.194 14.3259 401.009 15.6262L402.487 16.9738ZM406.133 14.5203C407.595 13.9166 409.214 13.608 411.004 13.608V11.608C408.98 11.608 407.098 11.9581 405.37 12.6717L406.133 14.5203ZM458.337 13.024H459.337V12.024H458.337V13.024ZM454.333 47.76L453.65 47.0296L453.65 47.0296L454.333 47.76ZM434.937 50.516L434.675 51.4811L434.675 51.4811L434.937 50.516ZM428.905 47.656L428.031 47.1717L427.617 47.9179L428.289 48.4435L428.905 47.656ZM432.129 41.832L432.765 41.0601L431.837 40.2956L431.255 41.3477L432.129 41.832ZM436.601 44.12L436.912 43.1695L436.904 43.1668L436.895 43.1642L436.601 44.12ZM448.197 43.08L447.519 42.3452L447.509 42.3542L447.5 42.3635L448.197 43.08ZM450.225 36.164H451.225V33.5802L449.486 35.4908L450.225 36.164ZM434.313 37.984L433.838 38.8635L433.846 38.8682L433.855 38.8726L434.313 37.984ZM429.269 33.2L430.123 32.6791L430.123 32.6791L429.269 33.2ZM429.269 19.056L430.123 19.5769L430.123 19.5769L429.269 19.056ZM434.313 14.324L434.778 15.2096L434.783 15.2067L434.313 14.324ZM450.641 16.612L449.858 17.233L451.641 19.4847V16.612H450.641ZM450.641 13.024V12.024H449.641V13.024H450.641ZM448.249 31.12L448.928 31.8548L448.928 31.8541L448.249 31.12ZM448.249 21.188L447.561 21.9135L447.571 21.9225L447.58 21.9313L448.249 21.188ZM437.693 21.188L438.362 21.9314L438.372 21.9221L437.693 21.188ZM437.693 31.12L437.014 31.8542L437.024 31.8633L437.693 31.12ZM457.337 13.024V36.32H459.337V13.024H457.337ZM457.337 36.32C457.337 41.2884 456.047 44.7888 453.65 47.0296L455.016 48.4904C457.959 45.7392 459.337 41.6129 459.337 36.32H457.337ZM453.65 47.0296C451.23 49.293 447.613 50.504 442.633 50.504V52.504C447.915 52.504 452.098 51.219 455.016 48.4904L453.65 47.0296ZM442.633 50.504C440.011 50.504 437.534 50.1847 435.199 49.5509L434.675 51.4811C437.194 52.1646 439.848 52.504 442.633 52.504V50.504ZM435.199 49.5509C432.871 48.919 430.989 48.017 429.522 46.8685L428.289 48.4435C430.011 49.791 432.15 50.7956 434.675 51.4811L435.199 49.5509ZM429.78 48.1403L433.004 42.3163L431.255 41.3477L428.031 47.1717L429.78 48.1403ZM431.494 42.6039C432.794 43.6746 434.408 44.4915 436.307 45.0758L436.895 43.1642C435.189 42.6392 433.822 41.9307 432.765 41.0601L431.494 42.6039ZM436.291 45.0705C438.188 45.6909 440.096 46.004 442.009 46.004V44.004C440.318 44.004 438.62 43.7278 436.912 43.1695L436.291 45.0705ZM442.009 46.004C444.944 46.004 447.313 45.3369 448.895 43.7965L447.5 42.3635C446.447 43.3884 444.691 44.004 442.009 44.004V46.004ZM448.876 43.8148C450.503 42.3123 451.225 40.0912 451.225 37.36H449.225C449.225 39.7595 448.595 41.3517 447.519 42.3452L448.876 43.8148ZM451.225 37.36V36.164H449.225V37.36H451.225ZM449.486 35.4908C447.599 37.5635 444.945 38.648 441.385 38.648V40.648C445.384 40.648 448.623 39.4099 450.965 36.8372L449.486 35.4908ZM441.385 38.648C438.97 38.648 436.771 38.1271 434.772 37.0954L433.855 38.8726C436.154 40.0596 438.67 40.648 441.385 40.648V38.648ZM434.789 37.1045C432.829 36.0442 431.279 34.5731 430.123 32.6791L428.416 33.7209C429.756 35.9176 431.568 37.6358 433.838 38.8635L434.789 37.1045ZM430.123 32.6791C428.981 30.8081 428.397 28.6351 428.397 26.128H426.397C426.397 28.9595 427.061 31.5012 428.416 33.7209L430.123 32.6791ZM428.397 26.128C428.397 23.6209 428.981 21.4479 430.123 19.5769L428.416 18.5351C427.061 20.7548 426.397 23.2965 426.397 26.128H428.397ZM430.123 19.5769C431.277 17.6855 432.824 16.2345 434.778 15.2095L433.849 13.4385C431.573 14.6322 429.758 16.3358 428.416 18.5351L430.123 19.5769ZM434.783 15.2067C436.78 14.1439 438.975 13.608 441.385 13.608V11.608C438.665 11.608 436.145 12.2161 433.844 13.4413L434.783 15.2067ZM441.385 13.608C445.201 13.608 447.97 14.8498 449.858 17.233L451.425 15.991C449.084 13.0355 445.682 11.608 441.385 11.608V13.608ZM451.641 16.612V13.024H449.641V16.612H451.641ZM450.641 14.024H458.337V12.024H450.641V14.024ZM442.997 33.992C445.353 33.992 447.36 33.3016 448.928 31.8548L447.571 30.3852C446.434 31.4344 444.94 31.992 442.997 31.992V33.992ZM448.928 31.8541C450.538 30.3653 451.329 28.4263 451.329 26.128H449.329C449.329 27.9204 448.734 29.3093 447.57 30.3859L448.928 31.8541ZM451.329 26.128C451.329 23.8297 450.537 21.9019 448.918 20.4447L447.58 21.9313C448.735 22.9701 449.329 24.3356 449.329 26.128H451.329ZM448.938 20.4625C447.371 18.9766 445.361 18.264 442.997 18.264V20.264C444.933 20.264 446.423 20.8341 447.561 21.9135L448.938 20.4625ZM442.997 18.264C440.634 18.264 438.612 18.9765 437.014 20.4539L438.372 21.9221C439.549 20.8341 441.063 20.264 442.997 20.264V18.264ZM437.024 20.4447C435.405 21.9019 434.613 23.8297 434.613 26.128H436.613C436.613 24.3356 437.208 22.9701 438.362 21.9313L437.024 20.4447ZM434.613 26.128C434.613 28.4263 435.405 30.3653 437.014 31.8541L438.372 30.3859C437.209 29.3093 436.613 27.9204 436.613 26.128H434.613ZM437.024 31.8633C438.622 33.3015 440.641 33.992 442.997 33.992V31.992C441.055 31.992 439.538 31.4345 438.362 30.3767L437.024 31.8633ZM493.5 13.024H494.5V12.024H493.5V13.024ZM493.5 41V42H494.5V41H493.5ZM485.752 41H484.752V42H485.752V41ZM485.752 37.776H486.752V35.0017L484.982 37.138L485.752 37.776ZM469.84 39.648L469.353 40.5215L469.359 40.5248L469.84 39.648ZM464.848 34.604L463.973 35.0896L463.973 35.0896L464.848 34.604ZM464.848 19.42L463.973 18.9344L463.973 18.9344L464.848 19.42ZM469.84 14.376L469.359 13.4992L469.353 13.5025L469.84 14.376ZM485.388 15.988L484.641 16.6538L486.388 18.6107V15.988H485.388ZM485.388 13.024V12.024H484.388V13.024H485.388ZM483.516 32.68L484.232 33.3782L484.24 33.3692L483.516 32.68ZM483.516 21.396L482.791 22.0853L482.8 22.0941L483.516 21.396ZM473.272 21.396L473.988 22.0942L473.996 22.0852L473.272 21.396ZM473.272 32.68L472.547 33.3693L472.556 33.3781L473.272 32.68ZM492.5 13.024V41H494.5V13.024H492.5ZM493.5 40H485.752V42H493.5V40ZM486.752 41V37.776H484.752V41H486.752ZM484.982 37.138C483.201 39.2871 480.6 40.416 477.016 40.416V42.416C481.058 42.416 484.281 41.1182 486.522 38.414L484.982 37.138ZM477.016 40.416C474.536 40.416 472.311 39.863 470.32 38.7712L469.359 40.5248C471.666 41.7903 474.226 42.416 477.016 42.416V40.416ZM470.326 38.7745C468.38 37.6895 466.848 36.145 465.722 34.1184L463.973 35.0896C465.274 37.431 467.07 39.2491 469.353 40.5215L470.326 38.7745ZM465.722 34.1184C464.603 32.1041 464.028 29.7454 464.028 27.012H462.028C462.028 30.0332 462.666 32.7359 463.973 35.0896L465.722 34.1184ZM464.028 27.012C464.028 24.2786 464.603 21.9199 465.722 19.9056L463.973 18.9344C462.666 21.2881 462.028 23.9908 462.028 27.012H464.028ZM465.722 19.9056C466.848 17.879 468.38 16.3345 470.326 15.2495L469.353 13.5025C467.07 14.7749 465.274 16.593 463.973 18.9344L465.722 19.9056ZM470.32 15.2528C472.311 14.161 474.536 13.608 477.016 13.608V11.608C474.226 11.608 471.666 12.2337 469.359 13.4992L470.32 15.2528ZM477.016 13.608C480.358 13.608 482.855 14.6522 484.641 16.6538L486.134 15.3222C483.898 12.8172 480.814 11.608 477.016 11.608V13.608ZM486.388 15.988V13.024H484.388V15.988H486.388ZM485.388 14.024H493.5V12.024H485.388V14.024ZM478.42 35.76C480.718 35.76 482.68 34.9696 484.232 33.3781L482.8 31.9819C481.647 33.1638 480.212 33.76 478.42 33.76V35.76ZM484.24 33.3692C485.804 31.7257 486.544 29.571 486.544 27.012H484.544C484.544 29.1677 483.932 30.7917 482.791 31.9908L484.24 33.3692ZM486.544 27.012C486.544 24.454 485.804 22.3104 484.232 20.6979L482.8 22.0941C483.931 23.255 484.544 24.8554 484.544 27.012H486.544ZM484.24 20.7068C482.691 19.0777 480.726 18.264 478.42 18.264V20.264C480.204 20.264 481.637 20.8716 482.791 22.0852L484.24 20.7068ZM478.42 18.264C476.084 18.264 474.1 19.074 472.547 20.7068L473.996 22.0852C475.147 20.8753 476.595 20.264 478.42 20.264V18.264ZM472.556 20.6979C470.983 22.3104 470.244 24.454 470.244 27.012H472.244C472.244 24.8554 472.856 23.255 473.988 22.0941L472.556 20.6979ZM470.244 27.012C470.244 29.571 470.984 31.7257 472.547 33.3692L473.996 31.9908C472.856 30.7917 472.244 29.1677 472.244 27.012H470.244ZM472.556 33.3781C474.111 34.9731 476.092 35.76 478.42 35.76V33.76C476.587 33.76 475.136 33.1602 473.988 31.9819L472.556 33.3781Z" fill="#BC2633"/>
</g>
<defs>
<filter id="filter0_d_222_100787" x="0.830078" y="0.076004" width="496.669" height="55.428" filterUnits="userSpaceOnUse" color-interpolation-filters="sRGB">
<feFlood flood-opacity="0" result="BackgroundImageFix"/>
<feColorMatrix in="SourceAlpha" type="matrix" values="0 0 0 0 0 0 0 0 0 0 0 0 0 0 0 0 0 0 127 0" result="hardAlpha"/>
<feOffset dx="4" dy="4"/>
<feComposite in2="hardAlpha" operator="out"/>
<feColorMatrix type="matrix" values="0 0 0 0 0 0 0 0 0 0 0 0 0 0 0 0 0 0 0.25 0"/>
<feBlend mode="normal" in2="BackgroundImageFix" result="effect1_dropShadow_222_100787"/>
<feBlend mode="normal" in="SourceGraphic" in2="effect1_dropShadow_222_100787" result="shape"/>
</filter>
</defs>
</svg>
