<svg width="586" height="587" viewBox="0 0 586 587" fill="none" xmlns="http://www.w3.org/2000/svg">
<path d="M139.719 426.363C138.324 424.348 137.82 422.483 138.207 420.766C138.579 419.029 139.979 417.301 142.404 415.581L152.175 408.653L154.102 411.437L144.332 418.366C142.806 419.448 141.905 420.484 141.629 421.475C141.339 422.446 141.652 423.594 142.567 424.917C143.634 426.457 145.365 427.526 147.762 428.123L159.762 419.614L161.69 422.398L136.867 440L134.94 437.216L145.268 429.892C142.772 429.277 140.922 428.101 139.719 426.363Z" fill="#BC2633"/>
<path d="M107.484 355.998C106.939 353.957 106.873 352.309 107.283 351.054C107.67 349.806 108.396 348.851 109.462 348.191C110.504 347.536 111.894 346.975 113.631 346.506L124.749 343.506L125.621 346.776L123.711 347.292C124.779 347.949 125.617 348.668 126.222 349.449C126.828 350.23 127.267 351.132 127.539 352.152C127.861 353.359 127.897 354.518 127.647 355.629C127.374 356.747 126.828 357.728 126.01 358.57C125.162 359.396 124.067 359.99 122.723 360.352C120.639 360.915 118.856 360.7 117.374 359.707C115.87 358.721 114.824 357.126 114.236 354.922C113.772 353.182 113.737 351.513 114.13 349.915C113.001 350.244 112.129 350.604 111.513 350.994C110.897 351.384 110.502 351.951 110.327 352.694C110.13 353.444 110.201 354.457 110.541 355.732L111.228 358.307L108.309 359.095L107.484 355.998ZM124.604 352.459C124.394 351.671 123.989 350.897 123.389 350.139C122.784 349.357 121.999 348.649 121.035 348.014L116.657 349.196C116.355 350.67 116.408 352.172 116.816 353.703C117.144 354.933 117.72 355.884 118.545 356.556C119.347 357.235 120.443 357.387 121.833 357.012C123.13 356.662 123.987 356.058 124.403 355.199C124.791 354.324 124.858 353.411 124.604 352.459Z" fill="#BC2633"/>
<path d="M101.152 268.947C101.355 266.532 102.15 264.81 103.537 263.779C104.926 262.724 107.104 262.331 110.068 262.6L122.011 263.682L121.729 267.053L109.786 265.971C107.897 265.8 106.544 265.991 105.726 266.543C104.887 267.069 104.401 268.121 104.269 269.699C104.113 271.564 104.853 273.51 106.49 275.537C107.167 275.502 107.996 275.529 108.976 275.618L120.919 276.7L120.637 280.071L108.694 278.989C106.805 278.818 105.452 279.009 104.634 279.561C103.795 280.087 103.309 281.139 103.177 282.717C103.025 284.534 103.685 286.425 105.159 288.389L119.828 289.718L119.545 293.089L99.7113 291.292L99.9941 287.921L102.11 288.113C100.575 286.023 99.8916 283.973 100.06 281.965C100.194 280.363 100.58 279.073 101.216 278.095C101.828 277.114 102.742 276.414 103.958 275.995C101.893 273.615 100.958 271.266 101.152 268.947Z" fill="#BC2633"/>
<path d="M112.519 200.099L113.927 197.025L118.843 199.355L117.435 202.43L112.519 200.099ZM120.821 204.035L122.229 200.961L140.232 209.496L138.825 212.57L120.821 204.035Z" fill="#BC2633"/>
<path d="M166.503 137.129C167.984 135.627 169.365 134.739 170.646 134.467C171.91 134.177 173.09 134.332 174.186 134.93C175.265 135.512 176.438 136.444 177.703 137.726L185.804 145.933L183.43 148.34L182.038 146.93C182.006 148.194 181.805 149.287 181.435 150.21C181.065 151.132 180.51 151.969 179.77 152.72C178.894 153.608 177.917 154.223 176.839 154.564C175.744 154.887 174.632 154.904 173.502 154.613C172.372 154.287 171.318 153.629 170.339 152.637C168.821 151.098 168.119 149.432 168.235 147.638C168.334 145.827 169.183 144.11 170.782 142.488C172.045 141.208 173.459 140.337 175.026 139.877C174.182 139.056 173.44 138.475 172.799 138.133C172.158 137.791 171.476 137.73 170.751 137.952C170.01 138.157 169.176 138.728 168.25 139.668L166.382 141.563L164.256 139.409L166.503 137.129ZM178.047 150.31C178.62 149.73 179.082 148.987 179.435 148.081C179.805 147.159 180.023 146.117 180.089 144.955L176.899 141.724C175.484 142.201 174.221 143.003 173.11 144.13C172.218 145.035 171.688 146.017 171.521 147.076C171.337 148.119 171.751 149.152 172.763 150.178C173.708 151.136 174.653 151.581 175.597 151.513C176.54 151.411 177.357 151.01 178.047 150.31Z" fill="#BC2633"/>
<path d="M231.132 95.4756L235.906 105.809C236.309 106.681 236.716 107.219 237.128 107.423C237.551 107.596 238.131 107.508 238.869 107.16C239.52 106.854 240.174 106.439 240.831 105.917L242.115 108.697C241.24 109.375 240.422 109.893 239.663 110.251C238.014 111.028 236.697 111.237 235.712 110.878C234.749 110.509 233.9 109.529 233.165 107.937L228.073 96.9174L225.73 98.0218L224.415 95.1768L226.759 94.0725L223.888 87.8593L226.947 86.4175L229.818 92.6306L233.983 90.6673L235.298 93.5123L231.132 95.4756Z" fill="#BC2633"/>
<path d="M382.335 92.0025C384.592 92.9497 386.018 94.2506 386.611 95.9051C387.227 97.569 386.971 99.7781 385.844 102.532L381.305 113.628L378.185 112.318L382.724 101.223C383.433 99.4904 383.639 98.1323 383.341 97.1485C383.065 96.174 382.186 95.3757 380.704 94.7535C378.977 94.0292 376.942 94.06 374.598 94.8462L369.023 108.474L365.902 107.164L373.441 88.7388L376.561 90.0482L375.757 92.014C378.217 91.1984 380.409 91.1946 382.335 92.0025Z" fill="#BC2633"/>
<path d="M446.022 134.67C447.569 136.107 448.505 137.469 448.831 138.755C449.173 140.022 449.074 141.224 448.533 142.359C448.008 143.477 447.142 144.703 445.934 146.038L438.209 154.584L435.73 152.28L437.058 150.812C435.81 150.832 434.724 150.674 433.798 150.338C432.873 150.002 432.023 149.474 431.25 148.756C430.335 147.906 429.686 146.942 429.302 145.865C428.934 144.769 428.868 143.643 429.104 142.487C429.374 141.329 429.976 140.234 430.909 139.201C432.358 137.599 433.969 136.819 435.742 136.862C437.531 136.886 439.261 137.675 440.931 139.227C442.25 140.452 443.171 141.849 443.695 143.416C444.466 142.528 445.006 141.752 445.314 141.088C445.623 140.425 445.651 139.731 445.401 139.007C445.166 138.264 444.565 137.444 443.598 136.545L441.647 134.732L443.674 132.489L446.022 134.67ZM433.548 146.911C434.146 147.467 434.899 147.904 435.807 148.224C436.732 148.56 437.769 148.737 438.917 148.755L441.959 145.39C441.425 143.977 440.578 142.731 439.417 141.653C438.486 140.787 437.494 140.292 436.443 140.166C435.407 140.023 434.407 140.486 433.441 141.554C432.54 142.551 432.144 143.526 432.253 144.479C432.395 145.431 432.827 146.241 433.548 146.911Z" fill="#BC2633"/>
<path d="M475.392 208.315C474.571 206.713 474.298 205.392 474.573 204.351C474.848 203.31 475.739 202.391 477.246 201.596L500.42 189.356L501.965 192.367L479.586 204.186C478.737 204.635 478.219 205.071 478.032 205.495C477.877 205.93 477.992 206.521 478.375 207.268C478.682 207.866 479.019 208.367 479.387 208.769L476.65 210.215C476.063 209.439 475.644 208.806 475.392 208.315Z" fill="#BC2633"/>
<path d="M518.412 287.412L497.576 284.029L497.11 280.423L511.607 273.504L495.851 270.675L495.386 267.069L514.65 258.277L515.102 261.776L500.01 268.302L516.282 270.917L516.78 274.773L501.729 281.62L517.96 283.913L518.412 287.412Z" fill="#BC2633"/>
<path d="M512.654 351.489C512.201 353.552 511.505 355.044 510.566 355.965C509.651 356.891 508.569 357.398 507.321 357.487C506.096 357.582 504.606 357.432 502.849 357.038L491.609 354.516L492.334 351.211L494.266 351.644C493.618 350.564 493.205 349.537 493.025 348.562C492.846 347.587 492.869 346.584 493.096 345.552C493.363 344.333 493.862 343.289 494.593 342.42C495.348 341.557 496.281 340.942 497.393 340.576C498.524 340.24 499.768 340.224 501.126 340.528C503.234 341.001 504.718 342.023 505.577 343.593C506.46 345.168 506.657 347.07 506.169 349.297C505.783 351.055 505.05 352.551 503.969 353.784C505.121 354.018 506.06 354.105 506.786 354.047C507.511 353.988 508.121 353.67 508.617 353.092C509.135 352.52 509.536 351.589 509.819 350.3L510.389 347.698L513.34 348.36L512.654 351.489ZM495.841 346.648C495.666 347.445 495.671 348.319 495.855 349.271C496.034 350.245 496.406 351.239 496.971 352.251L501.397 353.244C502.34 352.078 502.982 350.722 503.321 349.174C503.594 347.932 503.518 346.82 503.094 345.84C502.694 344.865 501.791 344.219 500.386 343.904C499.075 343.61 498.037 343.746 497.274 344.313C496.529 344.908 496.052 345.687 495.841 346.648Z" fill="#BC2633"/>
<path d="M481.299 425.378C479.996 427.45 478.487 428.633 476.772 428.925C475.044 429.238 472.931 428.587 470.431 426.973L460.36 420.469L462.161 417.605L472.232 424.108C473.805 425.123 475.096 425.572 476.106 425.453C477.104 425.354 478.031 424.624 478.887 423.263C479.883 421.678 480.194 419.651 479.82 417.181L467.45 409.193L469.252 406.329L485.976 417.128L484.174 419.993L482.39 418.841C482.774 421.431 482.41 423.61 481.299 425.378Z" fill="#BC2633"/>
<path d="M422.091 487.342L409.843 471.148C408.207 468.985 407.435 466.91 407.526 464.923C407.585 462.932 408.855 460.971 411.336 459.04C412.548 458.097 413.657 457.355 414.664 456.816C415.651 456.291 416.753 455.859 417.971 455.519L419.99 458.19C418.815 458.466 417.719 458.847 416.703 459.333C415.673 459.801 414.788 460.322 414.049 460.897C412.686 461.958 411.791 462.943 411.365 463.852C410.925 464.742 410.844 465.61 411.124 466.457C411.37 467.299 411.905 468.266 412.731 469.357L414.272 471.396C414.799 468.949 415.829 467.129 417.363 465.935C419.485 464.284 421.708 463.664 424.034 464.074C426.341 464.498 428.487 466.022 430.47 468.644C432.468 471.286 433.353 473.789 433.127 476.155C432.915 478.54 431.757 480.55 429.655 482.186C428.139 483.365 426.132 483.893 423.632 483.771L424.761 485.264L422.091 487.342ZM418.883 468.72C417.501 469.796 416.557 471.473 416.053 473.75L421.851 481.417C424.113 481.542 425.954 481.052 427.374 479.947C428.852 478.797 429.612 477.415 429.655 475.801C429.693 474.22 429.046 472.55 427.714 470.789C426.339 468.97 424.894 467.875 423.379 467.503C421.878 467.15 420.38 467.556 418.883 468.72Z" fill="#BC2633"/>
<path d="M360.044 518.16C358.033 518.804 356.394 518.951 355.13 518.6C353.872 518.272 352.894 517.589 352.195 516.553C351.504 515.54 350.892 514.173 350.358 512.454L346.944 501.452L350.167 500.42L350.754 502.311C351.366 501.208 352.05 500.334 352.805 499.689C353.56 499.044 354.44 498.561 355.446 498.239C356.634 497.858 357.787 497.766 358.903 497.963C360.027 498.183 361.024 498.683 361.894 499.463C362.748 500.273 363.382 501.343 363.794 502.672C364.434 504.735 364.289 506.533 363.357 508.066C362.433 509.622 360.885 510.747 358.713 511.442C356.999 511.991 355.339 512.107 353.733 511.79C354.104 512.905 354.496 513.763 354.908 514.362C355.32 514.961 355.899 515.33 356.646 515.468C357.4 515.63 358.405 515.51 359.662 515.108L362.199 514.295L363.095 517.184L360.044 518.16ZM355.864 501.166C355.087 501.415 354.332 501.858 353.6 502.496C352.846 503.141 352.171 503.961 351.575 504.958L352.92 509.291C354.399 509.523 355.893 509.397 357.401 508.914C358.613 508.526 359.537 507.903 360.175 507.043C360.82 506.207 360.929 505.101 360.503 503.726C360.104 502.442 359.47 501.612 358.599 501.236C357.713 500.889 356.801 500.866 355.864 501.166Z" fill="#BC2633"/>
</svg>
